<?xml version="1.0" encoding="UTF-8"?>
<!-- Generator: Adobe Illustrator 16.0.3, SVG Export Plug-In . SVG Version: 6.00 Build 0)  -->
<!DOCTYPE svg PUBLIC "-//W3C//DTD SVG 1.1//EN" "http://www.w3.org/Graphics/SVG/1.1/DTD/svg11.dtd">
<svg version="1.1" id="Layer_1" xmlns="http://www.w3.org/2000/svg" xmlns:xlink="http://www.w3.org/1999/xlink" x="0px" y="0px" width="30px" height="30px" viewBox="0 0 30 30" enable-background="new 0 0 30 30" xml:space="preserve">
<path fill="#0099FF" d="M26.698,2.27c-1.514,1.428-4.446,4.49-5.865,6.009c-4.122,4.407-7.882,9.117-11.323,14.072  c-1.635-2.5-3.575-5.059-5.959-6.91c-0.949-0.737-2.521-1.896-3.329-0.226c-0.654,1.352,0.973,2.354,1.731,3.225  c1.988,2.287,3.544,4.977,4.774,7.738c0.299,0.639,0.517,1.389,0.977,1.938c1.182,1.414,3.083,0.828,3.893-0.598  c3.178-5.59,6.706-11.037,10.8-16.01c1.546-1.878,4.605-5.273,6.228-7.087c0.836-0.936,1.783-2.288,0.966-3.105  C28.772,0.5,27.599,1.421,26.698,2.27z"/>
</svg>