<?xml version="1.0" encoding="UTF-8" standalone="no"?>
<svg
   xmlns:dc="http://purl.org/dc/elements/1.1/"
   xmlns:cc="http://creativecommons.org/ns#"
   xmlns:rdf="http://www.w3.org/1999/02/22-rdf-syntax-ns#"
   xmlns:svg="http://www.w3.org/2000/svg"
   xmlns="http://www.w3.org/2000/svg"
   xmlns:sodipodi="http://sodipodi.sourceforge.net/DTD/sodipodi-0.dtd"
   xmlns:inkscape="http://www.inkscape.org/namespaces/inkscape"
   version="1.1"
   x="0px"
   y="0px"
   viewBox="0 0 100 125"
   enable-background="new 0 0 100 100"
   xml:space="preserve"
   id="svg2"
   inkscape:version="0.91 r13725"
   sodipodi:docname="noun_124929_cc.svg"><metadata
     id="metadata16"><rdf:RDF><cc:Work
         rdf:about=""><dc:format>image/svg+xml</dc:format><dc:type
           rdf:resource="http://purl.org/dc/dcmitype/StillImage" /></cc:Work></rdf:RDF></metadata><defs
     id="defs14" /><sodipodi:namedview
     pagecolor="#ffffff"
     bordercolor="#666666"
     borderopacity="1"
     objecttolerance="10"
     gridtolerance="10"
     guidetolerance="10"
     inkscape:pageopacity="0"
     inkscape:pageshadow="2"
     inkscape:window-width="640"
     inkscape:window-height="480"
     id="namedview12"
     showgrid="false"
     inkscape:zoom="1.888"
     inkscape:cx="50"
     inkscape:cy="62.5"
     inkscape:window-x="0"
     inkscape:window-y="0"
     inkscape:window-maximized="0"
     inkscape:current-layer="svg2" /><g
     id="g4"><path
       fill="#000000"
       d="M31.67,14c-5.58,0-10.08,4.56-10.08,10.08v51.84c0,5.58,4.5,10.08,10.08,10.08h36.66   c5.521,0,10.08-4.5,10.08-10.08v-44.1v-0.06l0,0c0-0.06,0-0.06,0-0.06c-0.06-0.06-0.06-0.06-0.06-0.06l0,0c0-0.06,0-0.12,0-0.18   c0,0,0,0-0.061,0l0,0c0-0.06,0-0.06,0-0.06s0-0.06-0.06-0.06l0,0v-0.06c-0.06,0-0.06,0-0.06,0l0,0L62.69,14.24   C62.57,14.12,62.33,14,62.15,14c0,0,0,0-0.06,0H31.67L31.67,14z M31.67,15.62h29.641v6.9c0,5.58,4.5,10.08,10.08,10.08h5.399v43.32   c0,4.74-3.779,8.46-8.46,8.46H31.67c-4.68,0-8.46-3.72-8.46-8.46V24.08C23.21,19.4,26.99,15.62,31.67,15.62L31.67,15.62z    M62.931,16.88l5.58,6.12l7.26,7.98h-4.38c-4.681,0-8.46-3.78-8.46-8.46V16.88L62.931,16.88z M27.47,22.16   c-1.079-0.06-1.079,1.62,0,1.56h2.341v50.1h-2.28c-1.08,0-1.08,1.62,0,1.62h2.28v3.239c0,1.08,1.619,1.08,1.619,0V75.44h40.201   v2.279c0,1.08,1.619,1.08,1.619,0v-6.18c0-0.48-0.359-0.84-0.84-0.84c-0.42,0-0.779,0.359-0.779,0.84v2.28H31.43v-50.1h2.28   c1.08,0.06,1.08-1.62,0-1.56H27.47L27.47,22.16z M49.97,31.1c0,0-0.059,0-0.119,0c-5.82,0.06-10.5,4.86-10.5,10.74   c0,2.04,0.54,3.9,1.5,5.52c0,0,0,0.06,0.061,0.06c1.799,2.4,2.76,3.66,3.239,4.62c0.479,0.9,0.601,1.62,0.601,3.3V55.4   c0,0.06,0,0.06,0,0.119v2.94c0,0.9,0.6,1.62,1.319,2.04c-0.12,0.24-0.3,0.48-0.3,0.78c0,1.26,0.9,2.34,2.16,2.46   c0.119,1.08,0.96,1.979,2.039,1.979c1.141,0,2.041-0.96,2.161-2.04c1.199-0.18,2.1-1.14,2.1-2.399c0-0.3-0.18-0.54-0.3-0.78   c0.72-0.42,1.319-1.14,1.319-2.04v-2.94c0-0.06,0-0.06,0-0.119V55.34c0-1.68,0.061-2.399,0.54-3.3c0.48-0.96,1.5-2.22,3.301-4.62   c0,0,0-0.06,0.06-0.06c0.9-1.62,1.5-3.48,1.5-5.52c0-5.88-4.74-10.68-10.5-10.74C50.091,31.1,50.03,31.1,49.97,31.1L49.97,31.1   L49.97,31.1z M49.97,32.72c4.98,0,9.061,4.08,9.061,9.12c0,1.74-0.479,3.3-1.26,4.68c-1.74,2.339-2.76,3.6-3.42,4.8   c-0.48,1.02-0.66,2.04-0.66,3.42h-7.38c-0.06-1.38-0.181-2.4-0.72-3.42c-0.601-1.2-1.621-2.461-3.36-4.8   c-0.84-1.38-1.261-2.94-1.261-4.68C40.97,36.8,44.99,32.72,49.97,32.72L49.97,32.72z M46.311,56.36h7.32v2.1   c0,0.48-0.301,0.84-0.721,0.84c-0.06,0.061-0.12,0.061-0.12,0.061h-3.899c-1.08,0-1.08,1.62,0,1.62h3.66   c0.06,0.06,0.12,0.18,0.12,0.3c0,0.54-0.36,0.899-0.841,0.899h-0.42c-0.42,0-0.78,0.36-0.78,0.84v0.421   c0,0.359-0.299,0.659-0.66,0.659c-0.299,0-0.6-0.3-0.6-0.659V63.02c0-0.479-0.359-0.84-0.779-0.84h-0.42   c-0.48,0-0.84-0.359-0.84-0.899c0-0.24,0.119-0.42,0.239-0.601c0.479-0.479,0.181-1.26-0.479-1.38c-0.42,0-0.78-0.359-0.78-0.84   V56.36L46.311,56.36z"
       id="path6" /></g></svg>