<?xml version="1.0" encoding="UTF-8" standalone="no"?>
<svg
   xmlns:dc="http://purl.org/dc/elements/1.1/"
   xmlns:cc="http://creativecommons.org/ns#"
   xmlns:rdf="http://www.w3.org/1999/02/22-rdf-syntax-ns#"
   xmlns:svg="http://www.w3.org/2000/svg"
   xmlns="http://www.w3.org/2000/svg"
   xmlns:sodipodi="http://sodipodi.sourceforge.net/DTD/sodipodi-0.dtd"
   xmlns:inkscape="http://www.inkscape.org/namespaces/inkscape"
   version="1.1"
   x="0px"
   y="0px"
   viewBox="-255 347 100 125"
   style="enable-background:new -255 347 100 100;"
   xml:space="preserve"
   id="svg2"
   inkscape:version="0.91 r13725"
   sodipodi:docname="noun_179983_cc.svg"><metadata
     id="metadata172"><rdf:RDF><cc:Work
         rdf:about=""><dc:format>image/svg+xml</dc:format><dc:type
           rdf:resource="http://purl.org/dc/dcmitype/StillImage" /></cc:Work></rdf:RDF></metadata><defs
     id="defs170" /><sodipodi:namedview
     pagecolor="#ffffff"
     bordercolor="#666666"
     borderopacity="1"
     objecttolerance="10"
     gridtolerance="10"
     guidetolerance="10"
     inkscape:pageopacity="0"
     inkscape:pageshadow="2"
     inkscape:window-width="1501"
     inkscape:window-height="1137"
     id="namedview168"
     showgrid="false"
     inkscape:zoom="5.3400704"
     inkscape:cx="12.365792"
     inkscape:cy="90.634793"
     inkscape:window-x="0"
     inkscape:window-y="23"
     inkscape:window-maximized="0"
     inkscape:current-layer="svg2" /><style
     type="text/css"
     id="style4">
	.st0{enable-background:new    ;}
	.st1{fill:#FFFFFF;}
	.st2{fill:none;stroke:#FFFFFF;stroke-miterlimit:10;}
	.st3{fill:none;}
</style><g
     id="g6"><rect
       x="-447"
       y="347"
       width="185"
       height="99"
       id="rect8" /><rect
       x="-255"
       y="311"
       width="100"
       height="30"
       id="rect10" /><text
       transform="matrix(1 0 0 1 -189 327.5)"
       class="st1"
       style=""
       font-family="'Helvetica'"
       font-size="2.4px"
       id="text12">http://thenounproject.com</text>
<text
       transform="matrix(1 0 0 1 -247.834 322.5)"
       class="st1"
       style=""
       font-family="'Helvetica-Bold'"
       font-size="6.1578px"
       id="text14">The Noun Project</text>
<text
       transform="matrix(1 0 0 1 -246.7139 327.2998)"
       class="st1"
       style=""
       font-family="'Helvetica-Bold'"
       font-size="4px"
       id="text16">Icon Template</text>
<text
       transform="matrix(1 0 0 1 -433.5 357.5)"
       class="st1"
       style=""
       font-family="'Helvetica-Bold'"
       font-size="6.1578px"
       id="text18">Reminders</text>
<line
       class="st2"
       x1="-247"
       y1="332.5"
       x2="-237"
       y2="332.5"
       id="line20" /><line
       class="st2"
       x1="-434"
       y1="363.5"
       x2="-417"
       y2="363.5"
       id="line22" /><g
       id="g24"><g
         id="g26"><g
           id="g28"><rect
             x="-425.8"
             y="378.3"
             class="st1"
             width="8.7"
             height="8.6"
             id="rect30" /><path
             class="st1"
             d="M-419.5,389.3h4.7v-4.7h-4.7V389.3z M-414.3,389.7h-5.6v-5.6h5.6V389.7L-414.3,389.7z M-421.2,391.1h8.3      v-8.2h-8.3V391.1L-421.2,391.1z M-412.5,391.5h-9.2v-9.1h9.2V391.5L-412.5,391.5z"
             id="path32" /><polygon
             class="st1"
             points="-421.1,391.1 -421.3,391 -413,382.8 -412.9,382.9     "
             id="polygon34" /></g></g></g><rect
       x="-434"
       y="405"
       class="st3"
       width="35"
       height="32.5"
       id="rect36" /><text
       transform="matrix(1 0 0 1 -434 407.1572)"
       class="st1"
       style=""
       font-family="'Helvetica-Bold'"
       font-size="3px"
       id="text38">Strokes</text>
<text
       transform="matrix(1 0 0 1 -434 412.1572)"
       class="st1"
       style=""
       font-family="'Helvetica'"
       font-size="2.4px"
       id="text40">Try to keep strokes at 4px</text>
<text
       transform="matrix(1 0 0 1 -434 417.1572)"
       class="st1"
       style=""
       font-family="'Helvetica'"
       font-size="2.4px"
       id="text42">Minimum stroke weight is 2px</text>
<text
       transform="matrix(1 0 0 1 -434 421.6572)"
       class="st1"
       style=""
       font-family="'Helvetica'"
       font-size="2.4px"
       id="text44">For thicker strokes use even </text>
<text
       transform="matrix(1 0 0 1 -434 424.6572)"
       class="st1"
       style=""
       font-family="'Helvetica'"
       font-size="2.4px"
       id="text46">numbers: 6px, 8px etc.</text>
<text
       transform="matrix(1 0 0 1 -434 429.1572)"
       class="st1"
       style=""
       font-family="'Helvetica-Bold'"
       font-size="2.4px"
       id="text48">Remember to expand strokes </text>
<text
       transform="matrix(1 0 0 1 -434 432.1572)"
       class="st1"
       style=""
       font-family="'Helvetica-Bold'"
       font-size="2.4px"
       id="text50">before saving as an SVG </text>
<rect
       x="-391.5"
       y="405"
       class="st3"
       width="35"
       height="32.5"
       id="rect52" /><text
       transform="matrix(1 0 0 1 -391.5 407.1572)"
       class="st1"
       style=""
       font-family="'Helvetica-Bold'"
       font-size="3px"
       id="text54">Size</text>
<text
       transform="matrix(1 0 0 1 -391.5 412.1572)"
       class="st1"
       style=""
       font-family="'Helvetica'"
       font-size="2.4px"
       id="text56">Cannot be wider or taller than </text>
<text
       transform="matrix(1 0 0 1 -391.5 415.6572)"
       class="st1"
       style=""
       font-family="'Helvetica'"
       font-size="2.4px"
       id="text58">100px (artboard size)</text>
<text
       transform="matrix(1 0 0 1 -391.5 420.6572)"
       class="st1"
       style=""
       font-family="'Helvetica'"
       font-size="2.4px"
       id="text60">Scale your icon to fill as much of </text>
<text
       transform="matrix(1 0 0 1 -391.5 423.6572)"
       class="st1"
       style=""
       font-family="'Helvetica'"
       font-size="2.4px"
       id="text62">the artboard as possible</text>
<rect
       x="-349"
       y="405"
       class="st3"
       width="35"
       height="32.5"
       id="rect64" /><text
       transform="matrix(1 0 0 1 -349 407.1572)"
       class="st1"
       style=""
       font-family="'Helvetica-Bold'"
       font-size="3px"
       id="text66">Ungroup</text>
<text
       transform="matrix(1 0 0 1 -349 412.1572)"
       class="st1"
       style=""
       font-family="'Helvetica'"
       font-size="2.4px"
       id="text68">If your design has more than one </text>
<text
       transform="matrix(1 0 0 1 -349 415.1572)"
       class="st1"
       style=""
       font-family="'Helvetica'"
       font-size="2.4px"
       id="text70">shape, make sure to ungroup</text>
<rect
       x="-305"
       y="405"
       class="st3"
       width="35"
       height="32.5"
       id="rect72" /><text
       transform="matrix(1 0 0 1 -305 407.1572)"
       class="st1"
       style=""
       font-family="'Helvetica-Bold'"
       font-size="3px"
       id="text74">Save as</text>
<text
       transform="matrix(1 0 0 1 -305 412.1572)"
       class="st1"
       style=""
       font-family="'Helvetica'"
       font-size="2.4px"
       id="text76">Save as .SVG and make sure </text>
<text
       transform="matrix(1 0 0 1 -305 415.1572)"
       class="st1"
       style=""
       font-family="'Helvetica'"
       font-size="2.4px"
       id="text78">“Use Artboards” is checked</text>
<text
       transform="matrix(1.0074 0 0 1 -380.542 377.5938)"
       class="st1"
       style=""
       font-family="'Helvetica'"
       font-size="2.5731px"
       id="text80">100px</text>
<text
       transform="matrix(1.0074 0 0 1 -296 386)"
       class="st1"
       style=""
       font-family="'Helvetica-Bold'"
       font-size="5.1462px"
       id="text82">.SVG</text>
<rect
       x="-381.5"
       y="381.8"
       class="st1"
       width="10.3"
       height="10.2"
       id="rect84" /><rect
       x="-381.5"
       y="378.8"
       class="st1"
       width="0.5"
       height="2.3"
       id="rect86" /><rect
       x="-371.8"
       y="378.8"
       class="st1"
       width="0.5"
       height="2.3"
       id="rect88" /><rect
       x="-382"
       y="379.3"
       class="st1"
       width="11.2"
       height="0.6"
       id="rect90" /><g
       id="g92"><rect
         x="-338.8"
         y="380.8"
         class="st1"
         width="10.3"
         height="10.2"
         id="rect94" /><rect
         x="-331.8"
         y="375.7"
         class="st1"
         width="3.3"
         height="3.3"
         id="rect96" /></g><rect
       x="-433.5"
       y="369.5"
       class="st2"
       width="30"
       height="30"
       id="rect98" /><rect
       x="-391.5"
       y="369.5"
       class="st2"
       width="30"
       height="30"
       id="rect100" /><rect
       x="-348.5"
       y="369.5"
       class="st2"
       width="30"
       height="30"
       id="rect102" /><rect
       x="-304.5"
       y="369.5"
       class="st2"
       width="30"
       height="30"
       id="rect104" /></g><path
     d="M-205.1,422.2"
     id="path106" /><g
     id="g108"><g
       id="g110"><g
         id="g112"><path
           d="M-185.2,420.7c-1.3,0-2.6-0.4-3.8-1.1l-13.7-9c-1-0.7-1.3-2.1-0.6-3.1c0.7-1,2.1-1.3,3.1-0.6l13.6,9     c0.9,0.6,2.2,0.5,3.1-0.3c0.9-0.8,2.3-0.8,3.2,0.2c0.8,0.9,0.8,2.3-0.2,3.2C-181.8,420.1-183.5,420.7-185.2,420.7z"
           id="path114" /></g></g><g
       id="g116"><g
         id="g118"><path
           d="M-194.1,427.5c-1.3,0-2.6-0.3-3.7-1.1l-8.1-5.3c-1-0.7-1.3-2.1-0.7-3.1c0.7-1,2.1-1.3,3.1-0.7l8.1,5.3     c1.2,0.7,2.8,0.4,3.5-0.8c0.7-1.1,2.1-1.4,3.1-0.7c1.1,0.7,1.4,2.1,0.7,3.1C-189.4,426.3-191.7,427.5-194.1,427.5z"
           id="path120" /></g></g><g
       id="g122"><g
         id="g124"><path
           d="M-176.3,413.7c-2,0-4.3-0.7-6.9-2.3l-12.8-8.5c-1-0.7-1.3-2.1-0.6-3.1c0.7-1,2.1-1.3,3.1-0.6l12.7,8.5     c1.9,1.1,5.3,2.8,7.1,0.3c1.1-1.6,0.9-3.8,0.2-4.4c-1-0.8-1.2-2.2-0.4-3.2c0.8-1,2.2-1.2,3.2-0.4c2.8,2.2,3.2,7.1,0.8,10.5     C-171.3,412.3-173.4,413.7-176.3,413.7z"
           id="path126" /></g></g><g
       id="g128"><g
         id="g130"><path
           d="M-175,404c-0.4,0-0.8-0.1-1.2-0.4l-16-10.1c-0.6-0.4-5.3-3.2-7.4-8c-2.6,0.8-5.2,1.6-8.1,2.7l-0.3,0.1     c-3.1,1.1-9,3.3-12.4-0.6c-1.8-2.1-2.5-4.1-2.1-6.2c0.8-3.8,5-5.9,8.4-7.6c0.7-0.3,1.3-0.6,1.8-0.9l0.7-0.4     c2.5-1.4,5.1-2.9,7.5-4.5c5.4-3.6,11.4-0.2,11.7-0.1c0,0,0.1,0,0.1,0.1c0,0,5.1,3.3,9.6,5.4c3,1.4,6.3,0.5,9.9-0.5     c0.8-0.2,1.5-0.4,2.3-0.6c1.2-0.3,2.4,0.4,2.7,1.7c0.3,1.2-0.4,2.4-1.7,2.7c-0.7,0.2-1.4,0.4-2.2,0.6c-4,1.1-8.5,2.3-13,0.2     c-4.5-2.1-9.4-5.2-10.1-5.7c-0.4-0.2-4-2-6.9-0.1c-2.5,1.7-5.2,3.2-7.8,4.6l-0.6,0.4c-0.6,0.3-1.3,0.7-2,1     c-2.3,1.1-5.7,2.8-6,4.5c-0.2,0.8,0.5,1.7,1.1,2.4c1.3,1.5,5.3,0.1,7.4-0.7l0.3-0.1c3.8-1.4,7.2-2.5,10.5-3.4     c0.6-0.2,1.2-0.1,1.8,0.2c0.5,0.3,0.9,0.8,1,1.4c1,4.5,6,7.3,6,7.4c0,0,0.1,0,0.1,0.1l15.2,9.6l7.7-2.1c1.2-0.3,2.4,0.4,2.8,1.6     c0.3,1.2-0.4,2.4-1.6,2.8l-8.6,2.4C-174.6,404-174.8,404-175,404z"
           id="path132" /></g></g><g
       id="g134"><g
         id="g136"><path
           d="M-219.9,422.9C-219.9,422.9-219.9,422.9-219.9,422.9c-2.9,0-7.2-2-7.2-7.5v-4.6c0-0.3,0-3.2,2.1-5.3     c0.9-0.9,2.5-1.9,5-1.9c1.9,0,3.6,0.6,4.8,1.9c2.1,2.1,2.1,5,2.1,5.4v4.6c0,2.9-1.1,4.6-2.1,5.5     C-216.9,422.8-219.3,422.9-219.9,422.9z M-219.9,408.1c-1.2,0-1.7,0.5-1.8,0.6c-0.8,0.8-0.8,2.1-0.8,2.1v4.6c0,2.5,1.7,2.9,2.7,3     c1.1,0,2.4-0.5,2.4-3v-4.6C-217.5,409.8-217.8,408.1-219.9,408.1z"
           id="path138" /></g></g><g
       id="g140"><g
         id="g142"><path
           d="M-229.4,416.8C-229.5,416.8-229.5,416.8-229.4,416.8c-2.9,0-7.2-2-7.2-7.5v-1.7c0-0.3,0-3.2,2.1-5.3     c0.9-0.9,2.5-1.9,5-1.9c1.9,0,3.6,0.6,4.8,1.9c2.1,2.1,2.1,5,2.1,5.4v1.7c0,2.9-1.1,4.6-2.1,5.5     C-226.5,416.7-228.9,416.8-229.4,416.8z M-229.5,404.9c-1.2,0-1.7,0.5-1.8,0.6c-0.8,0.8-0.8,2.1-0.8,2.1v1.7c0,2.7,2,3,2.6,3     c1.1,0,2.4-0.5,2.4-3v-1.7C-227,406.6-227.4,404.9-229.5,404.9z"
           id="path144" /></g></g><g
       id="g146"><g
         id="g148"><path
           d="M-210.3,425.9C-210.3,425.9-210.4,425.9-210.3,425.9c-2.9,0-7.2-2-7.2-7.5V415c0-0.3,0-3.2,2.1-5.3     c0.9-0.9,2.5-1.9,5-1.9c1.9,0,3.6,0.6,4.8,1.9c2.1,2.1,2.1,5,2.1,5.4v3.5c0,2.9-1.1,4.6-2.1,5.5     C-207.3,425.8-209.7,425.9-210.3,425.9z M-210.3,412.2c-1.2,0-1.7,0.5-1.8,0.6c-0.8,0.8-0.8,2.1-0.8,2.1v3.5c0,2.5,1.7,2.9,2.7,3     c1.1,0,2.4-0.5,2.4-3V415C-207.9,414-208.2,412.2-210.3,412.2z"
           id="path150" /></g></g><g
       id="g152"><g
         id="g154"><path
           d="M-225.9,379.2c-0.2,0-0.5,0-0.7-0.1c0,0-4.6-1.5-7-2.3c-1.2-0.4-1.8-1.7-1.4-2.8c0.4-1.2,1.7-1.8,2.8-1.4     c1.8,0.6,5,1.7,6.4,2.1l15.7-3.4c1.2-0.3,2.4,0.5,2.7,1.7s-0.5,2.4-1.7,2.7l-16.3,3.5C-225.5,379.2-225.7,379.2-225.9,379.2z"
           id="path156" /></g></g><g
       id="g158"><g
         id="g160"><path
           d="M-234.4,406.3c-0.4,0-0.8-0.1-1.2-0.4l-9.3-6c-1-0.7-1.3-2.1-0.7-3.1s2.1-1.3,3.1-0.7l9.3,6c1,0.7,1.3,2.1,0.7,3.1     C-232.9,405.9-233.6,406.3-234.4,406.3z"
           id="path162" /></g></g></g></svg>