<?xml version="1.0" encoding="UTF-8" standalone="no"?>
<svg
   xmlns:dc="http://purl.org/dc/elements/1.1/"
   xmlns:cc="http://creativecommons.org/ns#"
   xmlns:rdf="http://www.w3.org/1999/02/22-rdf-syntax-ns#"
   xmlns:svg="http://www.w3.org/2000/svg"
   xmlns="http://www.w3.org/2000/svg"
   xmlns:sodipodi="http://sodipodi.sourceforge.net/DTD/sodipodi-0.dtd"
   xmlns:inkscape="http://www.inkscape.org/namespaces/inkscape"
   version="1.1"
   x="0px"
   y="0px"
   viewBox="0 0 100 99"
   enable-background="new 0 0 100 100"
   xml:space="preserve"
   id="svg82"
   inkscape:version="0.91 r13725"
   sodipodi:docname="noun_250439_cc.svg"
   width="100"
   height="99"><metadata
     id="metadata96"><rdf:RDF><cc:Work
         rdf:about=""><dc:format>image/svg+xml</dc:format><dc:type
           rdf:resource="http://purl.org/dc/dcmitype/StillImage" /><dc:title></dc:title></cc:Work></rdf:RDF></metadata><defs
     id="defs94" /><sodipodi:namedview
     pagecolor="#ffffff"
     bordercolor="#666666"
     borderopacity="1"
     objecttolerance="10"
     gridtolerance="10"
     guidetolerance="10"
     inkscape:pageopacity="0"
     inkscape:pageshadow="2"
     inkscape:window-width="838"
     inkscape:window-height="674"
     id="namedview92"
     showgrid="false"
     inkscape:zoom="3.776"
     inkscape:cx="50.668955"
     inkscape:cy="68.828524"
     inkscape:window-x="20"
     inkscape:window-y="43"
     inkscape:window-maximized="0"
     inkscape:current-layer="svg82" /><path
     d="m 49.736169,5.483051 c -24.814,0 -45.0009995,20.187 -45.0009995,45 0,24.812999 20.1869995,44.999999 45.0009995,44.999999 24.813,0 44.999,-20.187 44.999,-44.999999 0,-24.813 -20.187,-45 -44.999,-45 z m -10e-4,64.536 c -22.226,0 -27.994,-19.536 -27.994,-19.536 0,0 5.768,-19.536 27.994,-19.536 22.226,0 27.994,19.536 27.994,19.536 0,0 -5.768,19.536 -27.994,19.536 z"
     id="path84"
     inkscape:connector-curvature="0" /><path
     d="m 49.735169,35.260051 c -8.408,0 -15.223,6.816 -15.223,15.223 0,8.407 6.815,15.223 15.223,15.223 8.408,0 15.223,-6.815 15.223,-15.223 0,-8.408 -6.815,-15.223 -15.223,-15.223 z m 7.366,15.696 c 0.01,-0.157 0.024,-0.313 0.024,-0.473 0,-4.081 -3.309,-7.39 -7.39,-7.39 l 0,-4 c 6.291,0 11.39,5.099 11.39,11.39 0,0.16 -0.017,0.315 -0.024,0.473 l -4,0 z"
     id="path86"
     inkscape:connector-curvature="0" /></svg>