<svg xmlns="http://www.w3.org/2000/svg" xmlns:xlink="http://www.w3.org/1999/xlink" version="1.1" x="0px" y="0px" viewBox="0 0 100 100" enable-background="new 0 0 100 100" xml:space="preserve"><path d="M88.8,50c0-21.6-17.6-39.2-39.2-39.2S10.4,28.4,10.4,50c0,11.9,5.4,22.6,13.8,29.8c0.1,0.1,0.2,0.2,0.4,0.3  c6.8,5.7,15.5,9.1,25.1,9.1c9.4,0,18.1-3.4,24.9-8.9c0.4-0.1,0.7-0.4,0.9-0.7C83.6,72.3,88.8,61.8,88.8,50z M14,50  c0-19.6,16-35.6,35.6-35.6s35.6,16,35.6,35.6c0,9.6-3.8,18.3-10,24.7c-1-4.7-4-12.7-13.2-17.9c2.1-2.6,3.3-6,3.3-9.6  c0-8.6-7-15.6-15.6-15.6c-8.6,0-15.6,7-15.6,15.6c0,3.6,1.3,6.9,3.3,9.6c-9.3,5.2-12.3,13.2-13.2,17.9C17.9,68.4,14,59.6,14,50z   M37.6,47.3c0-6.6,5.4-12,12-12c6.6,0,12,5.4,12,12c0,6.6-5.4,12-12,12C43,59.3,37.6,53.9,37.6,47.3z M27.4,77.8  c0.2-2.9,1.8-12.7,12.6-18.2c2.7,2.1,6,3.3,9.6,3.3c3.6,0,7-1.3,9.7-3.4C70,65,71.7,74.6,72,77.7c-6.1,4.9-13.9,7.9-22.3,7.9  C41.2,85.6,33.5,82.7,27.4,77.8z"></path></svg>