<?xml version="1.0" encoding="UTF-8" standalone="no"?>
<svg
   xmlns:dc="http://purl.org/dc/elements/1.1/"
   xmlns:cc="http://creativecommons.org/ns#"
   xmlns:rdf="http://www.w3.org/1999/02/22-rdf-syntax-ns#"
   xmlns:svg="http://www.w3.org/2000/svg"
   xmlns="http://www.w3.org/2000/svg"
   xmlns:sodipodi="http://sodipodi.sourceforge.net/DTD/sodipodi-0.dtd"
   xmlns:inkscape="http://www.inkscape.org/namespaces/inkscape"
   version="1.1"
   x="0px"
   y="0px"
   viewBox="0 0 100 125"
   enable-background="new 0 0 100 100"
   xml:space="preserve"
   id="svg82"
   inkscape:version="0.91 r13725"
   sodipodi:docname="noun_250439_cc.svg"><metadata
     id="metadata96"><rdf:RDF><cc:Work
         rdf:about=""><dc:format>image/svg+xml</dc:format><dc:type
           rdf:resource="http://purl.org/dc/dcmitype/StillImage" /></cc:Work></rdf:RDF></metadata><defs
     id="defs94" /><sodipodi:namedview
     pagecolor="#ffffff"
     bordercolor="#666666"
     borderopacity="1"
     objecttolerance="10"
     gridtolerance="10"
     guidetolerance="10"
     inkscape:pageopacity="0"
     inkscape:pageshadow="2"
     inkscape:window-width="640"
     inkscape:window-height="480"
     id="namedview92"
     showgrid="false"
     inkscape:zoom="1.888"
     inkscape:cx="50"
     inkscape:cy="62.5"
     inkscape:window-x="0"
     inkscape:window-y="0"
     inkscape:window-maximized="0"
     inkscape:current-layer="svg82" /><path
     d="M50.001,5C25.187,5,5,25.187,5,50s20.187,45,45.001,45C74.814,95,95,74.813,95,50S74.813,5,50.001,5z M50,69.536  C27.774,69.536,22.006,50,22.006,50S27.774,30.464,50,30.464S77.994,50,77.994,50S72.226,69.536,50,69.536z"
     id="path84" /><path
     d="M50,34.777c-8.408,0-15.223,6.816-15.223,15.223S41.592,65.223,50,65.223S65.223,58.408,65.223,50S58.408,34.777,50,34.777z   M57.366,50.473c0.01-0.157,0.024-0.313,0.024-0.473c0-4.081-3.309-7.39-7.39-7.39v-4c6.291,0,11.39,5.099,11.39,11.39  c0,0.16-0.017,0.315-0.024,0.473H57.366z"
     id="path86" /></svg>