<?xml version="1.0" encoding="UTF-8" standalone="no"?>
<svg
   xmlns:x="adobe:ns:meta/"
   xmlns:dc="http://purl.org/dc/elements/1.1/"
   xmlns:cc="http://creativecommons.org/ns#"
   xmlns:rdf="http://www.w3.org/1999/02/22-rdf-syntax-ns#"
   xmlns:svg="http://www.w3.org/2000/svg"
   xmlns="http://www.w3.org/2000/svg"
   xmlns:sodipodi="http://sodipodi.sourceforge.net/DTD/sodipodi-0.dtd"
   xmlns:inkscape="http://www.inkscape.org/namespaces/inkscape"
   version="1.1"
   x="0px"
   y="0px"
   viewBox="0 0 100 125"
   enable-background="new 0 0 100 100"
   xml:space="preserve"
   id="svg44"
   inkscape:version="0.91 r13725"
   sodipodi:docname="noun_173850_cc.svg"><defs
     id="defs62" /><sodipodi:namedview
     pagecolor="#ffffff"
     bordercolor="#666666"
     borderopacity="1"
     objecttolerance="10"
     gridtolerance="10"
     guidetolerance="10"
     inkscape:pageopacity="0"
     inkscape:pageshadow="2"
     inkscape:window-width="640"
     inkscape:window-height="480"
     id="namedview60"
     showgrid="false"
     inkscape:zoom="1.888"
     inkscape:cx="50"
     inkscape:cy="62.5"
     inkscape:window-x="0"
     inkscape:window-y="0"
     inkscape:window-maximized="0"
     inkscape:current-layer="svg44" /><metadata
     id="metadata46"><?xpacket begin="&#65279;" id="W5M0MpCehiHzreSzNTczkc9d"?><x:xmpmeta
       x:xmptk="Adobe XMP Core 5.6-c014 79.156821, 2014/08/29-03:07:50        " /><?xpacket end="w"?><rdf:RDF><cc:Work
         rdf:about=""><dc:format>image/svg+xml</dc:format><dc:type
           rdf:resource="http://purl.org/dc/dcmitype/StillImage" /></cc:Work></rdf:RDF></metadata><path
     d="M92.782,12.816H8.214c-1.991,0-2.986,0.993-2.986,2.984v76.556c0,1.277,1.117,2.415,2.188,2.415h85.417  c1.069,0,1.938-1.037,1.938-2.313V14.806C94.771,13.528,93.852,12.816,92.782,12.816z M12.69,87.31V23.883H87.31V87.31H12.69z"
     id="path48" /><path
     d="M22.142,29.106c-1.099,0-1.989-0.891-1.989-1.989V7.22c0-1.101,0.891-1.991,1.989-1.991h3.981  c1.099,0,1.99,0.891,1.99,1.991v19.898c0,1.098-0.891,1.989-1.99,1.989H22.142z"
     id="path50" /><path
     d="M73.878,29.106c-1.099,0-1.99-0.891-1.99-1.989V7.22c0-1.101,0.891-1.991,1.99-1.991h3.98c1.099,0,1.989,0.891,1.989,1.991  v19.898c0,1.098-0.891,1.989-1.989,1.989H73.878z"
     id="path52" /><path
     d="M64.814,51.508H54.088V40.782c0-2.255-1.834-4.088-4.088-4.088s-4.088,1.833-4.088,4.088v10.727H35.186  c-2.253,0-4.09,1.833-4.09,4.088c0,2.253,1.836,4.088,4.09,4.088h10.727v10.727c0,2.255,1.834,4.088,4.088,4.088  s4.088-1.833,4.088-4.088V59.685h10.727c2.253,0,4.09-1.834,4.09-4.088C68.904,53.341,67.068,51.508,64.814,51.508z"
     id="path54" /></svg>