<?xml version="1.0" encoding="UTF-8" standalone="no"?>
<svg
   xmlns:dc="http://purl.org/dc/elements/1.1/"
   xmlns:cc="http://creativecommons.org/ns#"
   xmlns:rdf="http://www.w3.org/1999/02/22-rdf-syntax-ns#"
   xmlns:svg="http://www.w3.org/2000/svg"
   xmlns="http://www.w3.org/2000/svg"
   xmlns:sodipodi="http://sodipodi.sourceforge.net/DTD/sodipodi-0.dtd"
   xmlns:inkscape="http://www.inkscape.org/namespaces/inkscape"
   version="1.1"
   x="0px"
   y="0px"
   viewBox="0 0 90 90"
   enable-background="new 0 0 90 90"
   xml:space="preserve"
   id="svg2"
   inkscape:version="0.91 r13725"
   sodipodi:docname="noun_247516_cc.svg"
   width="90"
   height="90"><metadata
     id="metadata16"><rdf:RDF><cc:Work
         rdf:about=""><dc:format>image/svg+xml</dc:format><dc:type
           rdf:resource="http://purl.org/dc/dcmitype/StillImage" /><dc:title></dc:title></cc:Work></rdf:RDF></metadata><defs
     id="defs14" /><sodipodi:namedview
     pagecolor="#ffffff"
     bordercolor="#666666"
     borderopacity="1"
     objecttolerance="10"
     gridtolerance="10"
     guidetolerance="10"
     inkscape:pageopacity="0"
     inkscape:pageshadow="2"
     inkscape:window-width="640"
     inkscape:window-height="480"
     id="namedview12"
     showgrid="false"
     inkscape:zoom="2.0977778"
     inkscape:cx="45"
     inkscape:cy="56.25"
     inkscape:window-x="0"
     inkscape:window-y="23"
     inkscape:window-maximized="0"
     inkscape:current-layer="svg2" /><g
     id="g4"
     transform="translate(0,0.38135593)"><path
       d="m 61.511,26.15 c -0.714,-1.738 -1.723,-3.298 -3.026,-4.679 -1.303,-1.366 -2.809,-2.452 -4.515,-3.259 -1.754,-0.822 -3.601,-1.288 -5.54,-1.396 -0.28,-0.031 -0.552,-0.047 -0.814,-0.047 -0.018,0 -0.031,0 -0.047,0 -0.327,0.016 -0.574,0.023 -0.745,0.023 -1.971,0.108 -3.841,0.574 -5.609,1.397 -1.708,0.807 -3.212,1.893 -4.517,3.259 -1.318,1.381 -2.327,2.948 -3.026,4.702 l 0,-0.023 c -0.744,1.815 -1.118,3.716 -1.118,5.702 -0.015,2.064 0.537,4.182 1.654,6.355 0.574,1.133 1.295,2.25 2.164,3.352 0.482,0.605 1.002,1.21 1.56,1.816 0.031,0.016 0.055,0.039 0.071,0.07 0.527,0.496 0.892,0.978 1.093,1.443 0.108,0.233 0.179,0.52 0.21,0.862 0.046,0.371 0.069,0.822 0.069,1.35 l 0,1.048 c 0,0.62 0.117,1.218 0.349,1.792 0.234,0.543 0.56,1.024 0.978,1.443 l 0.025,0 c 0.418,0.419 0.892,0.745 1.42,0.977 l 0.023,0 c 0.558,0.249 1.148,0.373 1.769,0.373 l 7.287,0 c 0.62,0 1.209,-0.124 1.769,-0.373 0.543,-0.231 1.023,-0.558 1.443,-0.977 0.418,-0.419 0.743,-0.9 0.978,-1.443 0.248,-0.574 0.371,-1.172 0.371,-1.792 l 0,-1.048 c 0,-0.527 0.023,-0.979 0.071,-1.35 0.029,-0.342 0.092,-0.637 0.186,-0.885 0.108,-0.233 0.264,-0.473 0.466,-0.722 l 0,-0.023 c 0.187,-0.233 0.403,-0.466 0.651,-0.699 0.016,-0.016 0.031,-0.03 0.047,-0.046 0.574,-0.605 1.103,-1.21 1.583,-1.816 0.868,-1.102 1.591,-2.219 2.165,-3.352 1.117,-2.173 1.667,-4.291 1.652,-6.355 -0.003,-1.97 -0.368,-3.863 -1.097,-5.679 z m 20.274,16.992 c 0,6.875 -1.753,13.02 -5.261,18.436 -1.381,2.141 -3.032,4.167 -4.958,6.075 -6.75,6.797 -14.913,10.195 -24.486,10.195 -6.457,0 -12.292,-1.544 -17.505,-4.632 -0.249,0.295 -0.56,0.527 -0.932,0.698 L 12.512,81.572 C 12,81.805 11.465,81.875 10.906,81.782 10.347,81.688 9.866,81.44 9.463,81.037 9.059,80.634 8.811,80.151 8.717,79.594 8.624,79.034 8.694,78.5 8.927,77.989 l 7.658,-16.271 c 0.14,-0.311 0.334,-0.574 0.583,-0.792 -3.197,-5.261 -4.796,-11.188 -4.796,-17.784 0,-9.621 3.376,-17.807 10.125,-24.558 0.528,-0.527 1.071,-1.04 1.63,-1.536 2.204,-1.956 4.539,-3.57 7.006,-4.842 4.812,-2.514 10.127,-3.77 15.947,-3.77 9.573,0 17.736,3.382 24.486,10.148 6.426,6.378 9.824,14.029 10.195,22.952 0.017,0.527 0.024,1.063 0.024,1.606 z M 51.386,25.266 c -0.714,-0.326 -1.459,-0.513 -2.235,-0.559 -0.48,-0.031 -0.876,-0.225 -1.188,-0.583 -0.311,-0.34 -0.457,-0.752 -0.441,-1.233 0.031,-0.466 0.225,-0.854 0.582,-1.165 0.357,-0.31 0.769,-0.457 1.234,-0.441 1.226,0.077 2.397,0.38 3.515,0.907 1.069,0.497 2.018,1.179 2.84,2.049 0.807,0.869 1.435,1.854 1.884,2.956 0.466,1.133 0.699,2.32 0.699,3.562 0,0.465 -0.171,0.869 -0.512,1.21 -0.325,0.326 -0.722,0.489 -1.188,0.489 -0.48,0 -0.884,-0.163 -1.21,-0.489 -0.342,-0.341 -0.513,-0.746 -0.513,-1.21 0,-0.792 -0.146,-1.552 -0.441,-2.281 -0.279,-0.699 -0.683,-1.327 -1.211,-1.886 -0.528,-0.559 -1.134,-1.001 -1.815,-1.326 z m 6.401,10.102 c 0,0.512 -0.188,0.954 -0.56,1.326 -0.356,0.357 -0.8,0.536 -1.326,0.536 -0.512,0 -0.946,-0.179 -1.303,-0.536 -0.374,-0.372 -0.56,-0.814 -0.56,-1.326 0,-0.513 0.186,-0.956 0.56,-1.327 0.356,-0.357 0.791,-0.536 1.303,-0.536 0.526,0 0.97,0.178 1.326,0.536 0.373,0.372 0.56,0.814 0.56,1.327 z m -5.89,19.343 -8.497,0 c -0.712,0 -1.318,0.256 -1.815,0.769 -0.512,0.497 -0.769,1.094 -0.769,1.792 0,0.714 0.249,1.319 0.746,1.815 l 0.023,0.024 c 0.497,0.496 1.103,0.744 1.815,0.744 l 8.497,0 c 0.715,0 1.318,-0.248 1.815,-0.744 0.497,-0.513 0.745,-1.126 0.745,-1.84 0,-0.698 -0.248,-1.295 -0.745,-1.792 l 0,-0.023 c -0.511,-0.497 -1.116,-0.745 -1.815,-0.745 z m -9.171,7.727 -0.023,0 c -0.497,0.497 -0.745,1.103 -0.745,1.816 0,0.713 0.257,1.318 0.769,1.815 0.497,0.497 1.102,0.745 1.816,0.745 l 6.122,0 c 0.697,0 1.295,-0.248 1.792,-0.745 l 0.022,0 c 0.497,-0.497 0.746,-1.102 0.746,-1.815 0,-0.713 -0.249,-1.319 -0.746,-1.816 -0.512,-0.512 -1.117,-0.768 -1.814,-0.768 l -6.122,0 c -0.715,10e-4 -1.32,0.257 -1.817,0.768 z"
       id="path6"
       inkscape:connector-curvature="0"
       style="clip-rule:evenodd;fill-rule:evenodd" /></g></svg>