<?xml version="1.0" encoding="UTF-8" standalone="no"?>
<svg
   xmlns:dc="http://purl.org/dc/elements/1.1/"
   xmlns:cc="http://creativecommons.org/ns#"
   xmlns:rdf="http://www.w3.org/1999/02/22-rdf-syntax-ns#"
   xmlns:svg="http://www.w3.org/2000/svg"
   xmlns="http://www.w3.org/2000/svg"
   xmlns:sodipodi="http://sodipodi.sourceforge.net/DTD/sodipodi-0.dtd"
   xmlns:inkscape="http://www.inkscape.org/namespaces/inkscape"
   version="1.1"
   x="0px"
   y="0px"
   viewBox="0 0 100 125"
   enable-background="new 0 0 100 100"
   xml:space="preserve"
   id="svg2"
   inkscape:version="0.91 r13725"
   sodipodi:docname="noun_291202_cc.svg"><metadata
     id="metadata14"><rdf:RDF><cc:Work
         rdf:about=""><dc:format>image/svg+xml</dc:format><dc:type
           rdf:resource="http://purl.org/dc/dcmitype/StillImage" /></cc:Work></rdf:RDF></metadata><defs
     id="defs12" /><sodipodi:namedview
     pagecolor="#ffffff"
     bordercolor="#666666"
     borderopacity="1"
     objecttolerance="10"
     gridtolerance="10"
     guidetolerance="10"
     inkscape:pageopacity="0"
     inkscape:pageshadow="2"
     inkscape:window-width="640"
     inkscape:window-height="480"
     id="namedview10"
     showgrid="false"
     inkscape:zoom="1.888"
     inkscape:cx="50"
     inkscape:cy="62.5"
     inkscape:window-x="0"
     inkscape:window-y="0"
     inkscape:window-maximized="0"
     inkscape:current-layer="svg2" /><path
     d="M67.817,39.467c-0.753-0.251-1.574-0.506-2.428-0.771c-2.089-0.648-5.344-1.662-7.357-2.803  c-0.038-0.023-0.076-0.046-0.116-0.066c-0.63-0.367-1.134-0.746-1.417-1.131c3.192-2.773,5.256-7.302,5.256-11.414  c0-6.482-5.273-11.756-11.756-11.756c-6.481,0-11.755,5.273-11.755,11.756c0,4.113,2.063,8.642,5.256,11.414  c-0.285,0.387-0.791,0.767-1.425,1.135c-0.032,0.018-0.064,0.036-0.096,0.055c-2.013,1.145-5.278,2.161-7.372,2.811  c-0.854,0.266-1.675,0.521-2.426,0.771c-3.988,1.332-5.436,5.511-5.436,7.994c0,2.617,1.626,4.314,4.682,5.396  c0.121,0.061,0.249,0.113,0.387,0.145c0.061,0.016,5.035,1.275,6.774,3.848h-0.161c-0.998,0-1.809,0.809-1.809,1.807v20.789  c-0.836,0.16-1.469,0.893-1.469,1.773v5.447c0,0.998,0.811,1.809,1.809,1.809h26.083c0.998,0,1.808-0.811,1.808-1.809v-5.447  c0-0.881-0.633-1.613-1.469-1.773V58.656c0-0.998-0.81-1.807-1.808-1.807h-0.161c1.739-2.572,6.714-3.832,6.772-3.846  c0.143-0.033,0.273-0.088,0.398-0.15c3.048-1.082,4.67-2.779,4.67-5.392C73.253,44.978,71.805,40.799,67.817,39.467z M41.859,23.282  c0-4.488,3.652-8.139,8.14-8.139c0.695,0,1.261,0.564,1.261,1.26s-0.565,1.262-1.261,1.262c-0.337,0-0.653-0.131-0.892-0.369  c-0.706-0.707-1.85-0.708-2.557-0.001c-0.706,0.706-0.707,1.851,0,2.557c0.92,0.922,2.145,1.43,3.448,1.43  c2.568,0,4.657-2.003,4.841-4.526c1.996,1.484,3.298,3.854,3.298,6.527c0,4.596-3.832,10.424-8.139,10.424  C45.691,33.706,41.859,27.877,41.859,23.282z M33.967,49.865c-0.638-0.208-1.099-0.327-1.267-0.368  c-1.433-0.498-2.337-1.158-2.337-2.035c0-0.755,0.502-3.742,2.965-4.564c0.729-0.244,1.524-0.49,2.352-0.747  c2.158-0.67,4.426-1.378,6.387-2.263c0.389,0.651,0.854,1.258,1.391,1.795c0.354,0.354,0.816,0.531,1.28,0.531  c0.462,0,0.925-0.176,1.277-0.528c0.706-0.706,0.708-1.851,0.003-2.558c-0.32-0.32-0.6-0.679-0.834-1.064  c0.548-0.439,1.003-0.923,1.361-1.449c1.088,0.451,2.246,0.708,3.454,0.708c1.209,0,2.366-0.257,3.454-0.708  c0.356,0.523,0.81,1.004,1.353,1.441c-1.003,1.662-2.796,2.723-4.805,2.723c-0.999,0-1.808,0.811-1.808,1.809v8.421  C44.32,50.986,37.953,50.838,33.967,49.865z M57.448,56.85H42.553c-0.259-0.906-0.703-1.715-1.267-2.432  c2.597,0.15,5.493,0.211,8.704,0.211c0.004,0,0.008,0.002,0.011,0.002s0.007-0.002,0.011-0.002c3.21,0,6.107-0.061,8.704-0.211  C58.152,55.135,57.707,55.943,57.448,56.85z M59.766,60.465v18.947H40.236V60.465H59.766z M61.234,84.859H38.768v-1.832h22.467  V84.859z M67.29,49.5c-0.177,0.044-0.629,0.161-1.244,0.362c-3.985,0.976-10.36,1.125-14.237,1.146v-6.796  c2.57-0.508,4.795-2.077,6.13-4.32c1.96,0.883,4.224,1.59,6.379,2.259c0.827,0.257,1.623,0.503,2.354,0.747  c2.462,0.822,2.965,3.81,2.965,4.564C69.636,48.34,68.728,49.001,67.29,49.5z M45.334,67.768h9.333c0.998,0,1.808-0.811,1.808-1.809  s-0.81-1.807-1.808-1.807h-9.333c-0.998,0-1.809,0.809-1.809,1.807S44.336,67.768,45.334,67.768z M52.853,70.643h-5.703  c-0.999,0-1.808,0.809-1.808,1.807s0.809,1.809,1.808,1.809h5.703c0.998,0,1.808-0.811,1.808-1.809S53.851,70.643,52.853,70.643z"
     id="path4" /></svg>