<?xml version="1.0" encoding="UTF-8" standalone="no"?>
<svg
   xmlns:dc="http://purl.org/dc/elements/1.1/"
   xmlns:cc="http://creativecommons.org/ns#"
   xmlns:rdf="http://www.w3.org/1999/02/22-rdf-syntax-ns#"
   xmlns:svg="http://www.w3.org/2000/svg"
   xmlns="http://www.w3.org/2000/svg"
   xmlns:sodipodi="http://sodipodi.sourceforge.net/DTD/sodipodi-0.dtd"
   xmlns:inkscape="http://www.inkscape.org/namespaces/inkscape"
   version="1.1"
   x="0px"
   y="0px"
   viewBox="0 0 100 125"
   enable-background="new 0 0 100 100"
   xml:space="preserve"
   id="svg2"
   inkscape:version="0.91 r13725"
   sodipodi:docname="noun_99330_cc.svg"><metadata
     id="metadata22"><rdf:RDF><cc:Work
         rdf:about=""><dc:format>image/svg+xml</dc:format><dc:type
           rdf:resource="http://purl.org/dc/dcmitype/StillImage" /></cc:Work></rdf:RDF></metadata><defs
     id="defs20" /><sodipodi:namedview
     pagecolor="#ffffff"
     bordercolor="#666666"
     borderopacity="1"
     objecttolerance="10"
     gridtolerance="10"
     guidetolerance="10"
     inkscape:pageopacity="0"
     inkscape:pageshadow="2"
     inkscape:window-width="640"
     inkscape:window-height="480"
     id="namedview18"
     showgrid="false"
     inkscape:zoom="1.888"
     inkscape:cx="50"
     inkscape:cy="62.5"
     inkscape:window-x="0"
     inkscape:window-y="0"
     inkscape:window-maximized="0"
     inkscape:current-layer="svg2" /><g
     id="g4"><path
       d="M61.441,87.717H38.563c-0.568,0-1.029,0.472-1.029,1.046v5.188c0,0.578,0.461,1.049,1.029,1.049h22.878   c0.563,0,1.026-0.471,1.026-1.049v-5.188C62.468,88.188,62.004,87.717,61.441,87.717z"
       id="path6" /><path
       d="M37.766,30.479c0,0,1.014,0.225,1.346,0.225c0.324,0,0.568-0.163,0.568-0.163l0.879,3.919l1.432,2.912l0.095,2.432   l-0.013,0.036l7.959,6.166l8.399-7.08l0.014-1.168c1.425-1.663,1.873-3.022,2.174-5.19l0.19-1.364l0.578-1.056l0.407,0.418h0.687   l0.597-0.311l0.496-0.885l0.55-0.975l0.572-1.949V23.55l-0.273-0.917l-0.271-0.53l-0.904-0.039v-2.292   c0-4.671,0.755-6.176-1.91-10.04L59.88,8.929l-1.355-0.052L58.108,7.95L56.76,6.584c-8.393-3.458-13.505-1.165-19.129,5.981   l-0.74,4.188v5.573h-1.174l-0.412,0.416l0.357,4.23L37.766,30.479z"
       id="path8" /><path
       d="M50,85.738h10.114c-0.866-1.663-1.072-3.358-0.922-5.086H50h-8.966c0.145,1.728-0.28,3.423-1.149,5.086H50z"
       id="path10" /><path
       d="M78.958,57.048l-1.479-4.047c-3.016-4.956-7.427-4.429-12.598-5.622l-3.94-4.367h-1.563l-0.609,0.398l-8.258,6.168   l-0.48,0.405l-0.479-0.407l-8.262-6.024l-0.663-0.54h-1.564l-3.942,4.367c-5.169,1.193-9.577,0.667-12.598,5.622l-1.478,4.047   L20.5,60.292c2.814,1.95,9.976,8.312,13.833,12.762c3.858,4.448,5.112,2.86,6.504,5.313H50h9.163   c1.395-2.453,2.646-0.865,6.507-5.313c3.859-4.45,11.02-10.812,13.83-12.762L78.958,57.048z"
       id="path12" /></g></svg>