<?xml version="1.0" encoding="UTF-8" standalone="no"?>
<svg
   xmlns:dc="http://purl.org/dc/elements/1.1/"
   xmlns:cc="http://creativecommons.org/ns#"
   xmlns:rdf="http://www.w3.org/1999/02/22-rdf-syntax-ns#"
   xmlns:svg="http://www.w3.org/2000/svg"
   xmlns="http://www.w3.org/2000/svg"
   xmlns:sodipodi="http://sodipodi.sourceforge.net/DTD/sodipodi-0.dtd"
   xmlns:inkscape="http://www.inkscape.org/namespaces/inkscape"
   version="1.1"
   x="0px"
   y="0px"
   viewBox="0 0 512 640"
   style="enable-background:new 0 0 512 512;"
   xml:space="preserve"
   id="svg98"
   inkscape:version="0.91 r13725"
   sodipodi:docname="noun_344410_cc.svg"><metadata
     id="metadata116"><rdf:RDF><cc:Work
         rdf:about=""><dc:format>image/svg+xml</dc:format><dc:type
           rdf:resource="http://purl.org/dc/dcmitype/StillImage" /></cc:Work></rdf:RDF></metadata><defs
     id="defs114" /><sodipodi:namedview
     pagecolor="#ffffff"
     bordercolor="#666666"
     borderopacity="1"
     objecttolerance="10"
     gridtolerance="10"
     guidetolerance="10"
     inkscape:pageopacity="0"
     inkscape:pageshadow="2"
     inkscape:window-width="640"
     inkscape:window-height="480"
     id="namedview112"
     showgrid="false"
     inkscape:zoom="0.36875"
     inkscape:cx="256"
     inkscape:cy="320"
     inkscape:window-x="0"
     inkscape:window-y="0"
     inkscape:window-maximized="0"
     inkscape:current-layer="svg98" /><g
     id="g100"><path
       d="M256,128c-81.9,0-145.7,48.8-224,128c67.4,67.7,124,128,224,128c99.9,0,173.4-76.4,224-126.6   C428.2,198.6,354.8,128,256,128z M256,347.3c-49.4,0-89.6-41-89.6-91.3c0-50.4,40.2-91.3,89.6-91.3s89.6,41,89.6,91.3   C345.6,306.4,305.4,347.3,256,347.3z"
       id="path102" /><g
       id="g104"><path
         d="M256,224c0-7.9,2.9-15.1,7.6-20.7c-2.5-0.4-5-0.6-7.6-0.6c-28.8,0-52.3,23.9-52.3,53.3c0,29.4,23.5,53.3,52.3,53.3    s52.3-23.9,52.3-53.3c0-2.3-0.2-4.6-0.4-6.9c-5.5,4.3-12.3,6.9-19.8,6.9C270.3,256,256,241.7,256,224z"
         id="path106" /></g></g></svg>